<?xml version="1.0" encoding="utf-8"?><!DOCTYPE svg PUBLIC "-//W3C//DTD SVG 1.1//EN" "http://www.w3.org/Graphics/SVG/1.1/DTD/svg11.dtd"><svg viewBox="0 0 512 512" xmlns="http://www.w3.org/2000/svg" xmlns:xlink="http://www.w3.org/1999/xlink"><style>:root>svg{display:none}:root>svg:target{display:block}</style><svg fill="none" viewBox="0 0 16 30" id="arrow-left" xmlns="http://www.w3.org/2000/svg"><path d="M13.167 29.583a2.083 2.083 0 001.604-3.416L5.437 15l9-11.188a2.085 2.085 0 00-.312-2.937 2.084 2.084 0 00-3.042.313l-10.062 12.5a2.083 2.083 0 000 2.645l10.416 12.5a2.083 2.083 0 001.73.75z" fill="#27AE60"/></svg><svg fill="none" viewBox="0 0 16 30" id="arrow-right" xmlns="http://www.w3.org/2000/svg"><path d="M2.833 29.583a2.083 2.083 0 01-1.604-3.416L10.562 15l-9-11.188A2.083 2.083 0 011.875.876a2.083 2.083 0 013.042.313l10.062 12.5a2.084 2.084 0 010 2.645l-10.416 12.5a2.083 2.083 0 01-1.73.75z" fill="#27AE60"/></svg><svg viewBox="0 0 488 488" id="clock" xmlns="http://www.w3.org/2000/svg"><path d="M351.1 306.6L254 238.7V122c0-5.5-4.5-10-10-10s-10 4.5-10 10v122c0 3.3 1.6 6.3 4.3 8.2l101.4 70.9c1.7 1.2 3.7 1.8 5.7 1.8 3.1 0 6.2-1.5 8.2-4.4 3.1-4.5 2-10.7-2.5-13.9z"/><path d="M416.4 71.6C370.2 25.4 309 0 244 0S117.8 25.4 71.6 71.6C25.4 117.8 0 179 0 244s25.4 126.2 71.6 172.4C117.8 462.6 179 488 244 488s126.2-25.4 172.4-71.6S488 309 488 244s-25.4-126.2-71.6-172.4zM254 467.8V427c0-5.5-4.5-10-10-10s-10 4.5-10 10v40.8C118.4 462.7 25.3 369.6 20.2 254H61c5.5 0 10-4.5 10-10s-4.5-10-10-10H20.2C25.3 118.4 118.4 25.3 234 20.2V61c0 5.5 4.5 10 10 10s10-4.5 10-10V20.2c115.6 5.1 208.7 98.2 213.8 213.8H427c-5.5 0-10 4.5-10 10s4.5 10 10 10h40.8c-5.1 115.6-98.2 208.7-213.8 213.8z"/></svg><svg viewBox="0 0 512 512" id="delivery" xmlns="http://www.w3.org/2000/svg"><path d="M509.473 294.358l-59.391-67.802a10.203 10.203 0 00-7.672-3.479h-49.455v-41.872c0-5.633-4.567-10.199-10.199-10.199h-128.07c-3.419-42.435-39.019-75.927-82.32-75.927-45.554 0-82.614 37.06-82.614 82.614 0 42.01 31.526 76.77 72.157 81.928v87.955h-59.045c-5.633 0-10.199 4.566-10.199 10.199s4.566 10.199 10.199 10.199h59.045v10.365c0 5.633 4.566 10.199 10.199 10.199h21.289c4.485 16.339 19.459 28.382 37.203 28.382 17.744 0 32.718-12.043 37.204-28.382h136.088c4.485 16.339 19.459 28.382 37.203 28.382 17.744 0 32.718-12.043 37.204-28.382h23.502c5.632 0 10.199-4.566 10.199-10.199v-77.261c0-2.472-.899-4.86-2.527-6.72zM110.151 177.693c0-34.306 27.909-62.215 62.215-62.215 34.306 0 62.215 27.909 62.215 62.215s-27.909 62.215-62.215 62.215c-34.306 0-62.215-27.909-62.215-62.215zM230.6 396.523c-10.026 0-18.182-8.157-18.182-18.183s8.156-18.183 18.182-18.183c10.027 0 18.183 8.157 18.183 18.183s-8.157 18.183-18.183 18.183zm37.202-28.383c-4.485-16.339-19.46-28.382-37.204-28.382-17.743 0-32.717 12.043-37.203 28.382h-11.09V259.687c36.352-4.383 65.499-32.45 71.513-68.282h118.735V368.14H267.802zm173.292 28.383c-10.026 0-18.182-8.157-18.182-18.183s8.156-18.183 18.182-18.183c10.026 0 18.183 8.157 18.183 18.183s-8.156 18.183-18.183 18.183zm50.508-28.383h-13.304c-4.485-16.339-19.46-28.382-37.204-28.382s-32.717 12.043-37.203 28.382h-10.939V243.475h44.831l53.818 61.438v63.227zM69.261 347.576h-5.442c-5.633 0-10.199 4.566-10.199 10.199s4.566 10.199 10.199 10.199h5.442c5.633 0 10.199-4.566 10.199-10.199s-4.566-10.199-10.199-10.199zM63.818 194.967H23.146c-5.633 0-10.199 4.566-10.199 10.199s4.566 10.199 10.199 10.199h40.672c5.633 0 10.199-4.566 10.199-10.199.001-5.633-4.566-10.199-10.199-10.199z"/><path d="M119.5 270.24H10.199C4.566 270.24 0 274.806 0 280.439s4.566 10.199 10.199 10.199H119.5c5.633 0 10.199-4.566 10.199-10.199s-4.566-10.199-10.199-10.199zM197.085 187.987l-14.52-14.519v-43.521c0-5.633-4.566-10.199-10.199-10.199s-10.199 4.566-10.199 10.199v47.746c0 2.705 1.075 5.299 2.987 7.212l17.507 17.507c1.991 1.992 4.602 2.987 7.212 2.987s5.221-.996 7.212-2.987c3.983-3.983 3.983-10.442 0-14.425z"/></svg><svg viewBox="0 0 474 474" id="mail" xmlns="http://www.w3.org/2000/svg"><path d="M437.5 59.3h-401C16.4 59.3 0 75.7 0 95.8v282.4c0 20.1 16.4 36.5 36.5 36.5h401c20.1 0 36.5-16.4 36.5-36.5V95.8c0-20.1-16.4-36.5-36.5-36.5zm-5.3 27L239.5 251.1 46.8 86.3h385.4zM447 378.2c0 5.2-4.3 9.5-9.5 9.5h-401c-5.2 0-9.5-4.3-9.5-9.5V104.9l203.7 174.2c.1.1.3.2.4.3.1.1.3.2.4.3.3.2.5.4.8.5.1.1.2.1.3.2l1.2.6c.1 0 .2.1.3.1.3.1.6.3 1 .4.1 0 .3.1.4.1.3.1.6.2.9.2.1 0 .3.1.4.1.3.1.7.1 1 .2h.3c.4 0 .9.1 1.3.1s.9 0 1.3-.1h.3c.3 0 .7-.1 1-.2.1 0 .3-.1.4-.1.3-.1.6-.2.9-.2.1 0 .3-.1.4-.1.3-.1.6-.2 1-.4.1 0 .2-.1.3-.1l1.2-.6c.1-.1.2-.1.3-.2.3-.2.5-.3.8-.5.1-.1.3-.2.4-.3.1-.1.3-.2.4-.3L447 109.2v269z"/></svg><svg viewBox="0 0 420.514 420.514" id="phone" xmlns="http://www.w3.org/2000/svg"><path d="M293.814 254.728l-37.701 28.083-7.636 24.527a393.717 393.717 0 01-135.301-135.301l24.527-7.636 28.083-37.701L75.978 0 33.567 20.089 0 101.609l.863 2.632c24.033 73.265 65.555 140.81 120.077 195.332 54.522 54.522 122.067 96.044 195.332 120.077l2.632.863 81.521-33.567 20.088-42.41-126.699-89.808zM147.246 126.481l-13.948 18.724L50.681 28.58l20.34-9.634 76.225 107.535zM318.327 404.53c-70.028-23.428-134.565-63.348-186.78-115.563S39.412 172.215 15.985 102.186l25.164-61.113 79.908 112.801-30.221 9.409 4.594 8.095a408.68 408.68 0 00153.708 153.708l8.096 4.594 9.408-30.221 112.801 79.907-61.116 25.164zm73.607-34.697l-116.626-82.617 18.724-13.948 107.536 76.225-9.634 20.34z"/></svg><svg viewBox="0 0 255.856 255.856" id="point" xmlns="http://www.w3.org/2000/svg"><g fill="#000002"><path d="M127.928 38.8c-30.75 0-55.768 25.017-55.768 55.767s25.018 55.767 55.768 55.767 55.768-25.017 55.768-55.767S158.678 38.8 127.928 38.8zm0 96.533c-22.479 0-40.768-18.288-40.768-40.767S105.449 53.8 127.928 53.8s40.768 18.288 40.768 40.767-18.288 40.766-40.768 40.766z"/><path d="M127.928 0C75.784 0 33.362 42.422 33.362 94.566c0 30.072 25.22 74.875 40.253 98.904 9.891 15.809 20.52 30.855 29.928 42.365 15.101 18.474 20.506 20.02 24.386 20.02 3.938 0 9.041-1.547 24.095-20.031 9.429-11.579 20.063-26.616 29.944-42.342 15.136-24.088 40.527-68.971 40.527-98.917C222.495 42.422 180.073 0 127.928 0zm43.641 181.803c-19.396 31.483-37.203 52.757-43.73 58.188-6.561-5.264-24.079-26.032-43.746-58.089-22.707-37.015-35.73-68.848-35.73-87.336C48.362 50.693 84.055 15 127.928 15s79.566 35.693 79.566 79.566c.001 18.382-13.094 50.178-35.925 87.237z"/></g></svg><svg viewBox="0 0 512.001 512.001" id="quality" xmlns="http://www.w3.org/2000/svg"><path d="M473.725 442.659L413.001 299.82c21.462-30.889 34.064-68.375 34.064-108.754C447.065 85.712 361.354 0 256 0 150.648 0 64.936 85.712 64.936 191.065c0 40.38 12.602 77.864 34.064 108.753l-60.724 142.84c-2.907 6.837-2.403 13.4 1.384 18.007 3.787 4.607 10.13 6.37 17.399 4.844l46.376-9.75c5.482-1.153 13.184 2.121 16.159 6.869l25.157 40.162c3.7 5.904 8.918 9.211 14.458 9.211.366 0 .734-.015 1.103-.043 5.946-.471 11.021-4.66 13.929-11.498l51.34-120.762A191.64 191.64 0 00256 382.129c10.352 0 20.51-.839 30.419-2.431L337.76 500.46c2.907 6.837 7.984 11.028 13.93 11.498.369.028.737.043 1.103.043 5.538 0 10.758-3.306 14.457-9.211l25.156-40.162c2.976-4.749 10.677-8.026 16.161-6.87l46.374 9.75c7.271 1.526 13.613-.237 17.4-4.844 3.786-4.606 4.291-11.169 1.384-18.005zm-389.534.517l-30.48 6.408a9.67 9.67 0 01-.727.128c.072-.206.158-.435.267-.688l57.138-134.404a193.01 193.01 0 0019.875 20.18L84.191 443.176zm19.298-3.801l39.966-94.013a191.395 191.395 0 0025.194 15.599l-38.006 89.4c-6.582-7.373-17.341-11.749-27.154-10.986zm55.777 54.719c-.107.253-.211.475-.311.67-.129-.177-.267-.38-.412-.612l-17.176-27.421 42.059-98.934a189.494 189.494 0 0025.896 8.556l-50.056 117.741zM256 365.858c-96.381 0-174.792-78.411-174.792-174.792S159.62 16.272 256 16.272s174.794 78.412 174.794 174.794S352.382 365.858 256 365.858zm97.458 128.293a10.05 10.05 0 01-.412.612c-.1-.195-.204-.418-.311-.67L302.68 376.351a189.22 189.22 0 0025.896-8.556l42.059 98.934-17.177 27.422zm27.9-43.79l-38.006-89.4a191.483 191.483 0 0025.193-15.598l39.968 94.011c-9.815-.767-20.572 3.612-27.155 10.987zm76.93-.777l-30.479-6.408-46.075-108.375a192.627 192.627 0 0019.876-20.18l57.138 134.404c.109.252.195.481.266.688a9.97 9.97 0 01-.726-.129z"/><path d="M256 88.098c-56.776 0-102.967 46.191-102.967 102.967S199.224 294.031 256 294.031c56.777 0 102.968-46.19 102.968-102.966S312.777 88.098 256 88.098zm0 189.662c-47.804 0-86.695-38.891-86.695-86.694 0-47.804 38.891-86.695 86.695-86.695s86.697 38.891 86.697 86.695c0 47.802-38.892 86.694-86.697 86.694z"/><path d="M256 45.869c-80.062 0-145.196 65.134-145.196 145.196 0 80.061 65.134 145.195 145.196 145.195s145.198-65.134 145.198-145.195c0-80.062-65.136-145.196-145.198-145.196zm0 274.119c-71.09 0-128.925-57.834-128.925-128.924 0-71.089 57.835-128.925 128.925-128.925s128.926 57.835 128.926 128.925S327.09 319.988 256 319.988z"/></svg><svg viewBox="0 0 408.352 408.352" id="support" xmlns="http://www.w3.org/2000/svg"><path d="M408.346 163.059c0-71.92-54.61-131.589-125.445-138.512-2.565-8.81-10.698-15.272-20.325-15.272H145.775c-9.627 0-17.759 6.462-20.324 15.272C54.614 31.479 0 91.149 0 163.059v111.142c0 23.601 19.201 42.802 42.801 42.802h33.32c9.916 0 17.983-8.067 17.983-17.983V180.918c0-9.916-8.067-17.983-17.983-17.983h-33.32c-10.606 0-20.316 3.886-27.801 10.298v-10.174C15 98.989 63.585 45.807 126.653 39.5c3.401 7.16 10.682 12.134 19.122 12.134h116.801c8.44 0 15.721-4.974 19.123-12.134 63.065 6.299 111.647 59.481 111.647 123.56v10.169c-7.485-6.409-17.193-10.294-27.796-10.294h-33.32c-9.916 0-17.983 8.067-17.983 17.983v118.101c0 9.916 8.067 17.983 17.983 17.983h33.32c10.606 0 20.316-3.886 27.802-10.299v5.459c0 28.339-23.056 51.395-51.395 51.395h-90.885c-3.288-11.818-14.14-20.518-26.991-20.518h-27.357c-15.449 0-28.018 12.569-28.018 28.018s12.569 28.018 28.018 28.018h27.357c12.851 0 23.703-8.7 26.991-20.518h90.885c36.61 0 66.395-29.784 66.395-66.395l-.006-149.103zM79.105 180.918v118.101a2.986 2.986 0 01-2.983 2.983h-2.983V177.935h2.983a2.986 2.986 0 012.983 2.983zm-36.304-2.983h15.337v124.068H42.801c-15.33 0-27.801-12.472-27.801-27.802v-68.465c0-15.33 12.472-27.801 27.801-27.801zM262.576 36.633H145.775c-3.407 0-6.179-2.772-6.179-6.179s2.772-6.179 6.179-6.179h116.801c3.407 0 6.18 2.772 6.18 6.179s-2.773 6.179-6.18 6.179zm66.67 262.386V180.918a2.986 2.986 0 012.983-2.983h2.983v124.068h-2.983a2.987 2.987 0 01-2.983-2.984zm-105.165 85.057h-27.357c-7.178 0-13.018-5.84-13.018-13.018s5.84-13.018 13.018-13.018h27.357c7.179 0 13.019 5.84 13.019 13.018s-5.84 13.018-13.019 13.018zm141.469-82.073h-15.337V177.935h15.337c15.33 0 27.802 12.472 27.802 27.801v68.465c0 15.33-12.472 27.802-27.802 27.802z"/></svg></svg>