<svg width="16" height="30" viewBox="0 0 16 30" fill="none" xmlns="http://www.w3.org/2000/svg">
<path d="M2.83333 29.5833C2.34656 29.5843 1.87481 29.4148 1.5 29.1042C1.28904 28.9293 1.11466 28.7145 0.986846 28.4721C0.859029 28.2297 0.780287 27.9645 0.755129 27.6916C0.729971 27.4187 0.758892 27.1436 0.840235 26.8819C0.921577 26.6202 1.05374 26.3772 1.22916 26.1667L10.5625 15L1.5625 3.8125C1.38944 3.5994 1.26021 3.3542 1.18223 3.09099C1.10425 2.82779 1.07905 2.55176 1.10809 2.27879C1.13713 2.00581 1.21983 1.74126 1.35144 1.50036C1.48306 1.25945 1.66098 1.04692 1.875 0.874999C2.09055 0.68534 2.34298 0.542283 2.61644 0.454805C2.88991 0.367328 3.1785 0.337321 3.46411 0.366664C3.74972 0.396008 4.02618 0.48407 4.27615 0.625323C4.52611 0.766577 4.74418 0.957973 4.91666 1.1875L14.9792 13.6875C15.2856 14.0603 15.4531 14.5279 15.4531 15.0104C15.4531 15.493 15.2856 15.9606 14.9792 16.3333L4.5625 28.8333C4.3535 29.0855 4.08802 29.2848 3.78758 29.4151C3.48714 29.5454 3.16022 29.603 2.83333 29.5833Z" fill="#27AE60"/>
</svg>
