<svg width="16" height="30" viewBox="0 0 16 30" fill="none" xmlns="http://www.w3.org/2000/svg">
<path d="M13.1667 29.5833C13.6534 29.5843 14.1252 29.4148 14.5 29.1042C14.711 28.9293 14.8853 28.7145 15.0131 28.4721C15.141 28.2297 15.2197 27.9645 15.2449 27.6916C15.27 27.4187 15.2411 27.1436 15.1598 26.8819C15.0784 26.6202 14.9463 26.3772 14.7708 26.1667L5.4375 15L14.4375 3.8125C14.6105 3.5994 14.7398 3.3542 14.8178 3.09099C14.8957 2.82779 14.9209 2.55176 14.8919 2.27879C14.8629 2.00581 14.7802 1.74126 14.6485 1.50036C14.5169 1.25945 14.339 1.04692 14.125 0.874999C13.9094 0.68534 13.657 0.542283 13.3835 0.454805C13.1101 0.367328 12.8215 0.337321 12.5359 0.366664C12.2503 0.396008 11.9738 0.48407 11.7238 0.625323C11.4739 0.766577 11.2558 0.957973 11.0833 1.1875L1.02083 13.6875C0.714409 14.0603 0.546897 14.5279 0.546897 15.0104C0.546897 15.493 0.714409 15.9606 1.02083 16.3333L11.4375 28.8333C11.6465 29.0855 11.912 29.2848 12.2124 29.4151C12.5129 29.5454 12.8398 29.603 13.1667 29.5833Z" fill="#27AE60"/>
</svg>
